<?xml version="1.0" standalone="no"?>
<!DOCTYPE svg PUBLIC "-//W3C//DTD SVG 20010904//EN"
 "http://www.w3.org/TR/2001/REC-SVG-20010904/DTD/svg10.dtd">
<svg version="1.0" xmlns="http://www.w3.org/2000/svg"
 width="673.000000pt" height="673.000000pt" viewBox="0 0 673.000000 673.000000"
 preserveAspectRatio="xMidYMid meet">
<metadata>
Created by potrace 1.11, written by Peter Selinger 2001-2013
</metadata>
<g transform="translate(0.000000,673.000000) scale(0.100000,-0.100000)"
fill="#000000" stroke="none">
<path d="M4750 6696 c0 -2 7 -7 16 -10 8 -3 12 -2 9 4 -6 10 -25 14 -25 6z"/>
<path d="M3665 6621 c-5 -18 -9 -21 -16 -10 -7 11 -9 10 -9 -4 0 -10 -5 -15
-10 -12 -6 4 -7 11 -4 17 4 7 2 8 -5 4 -6 -4 -9 -12 -6 -17 4 -5 1 -9 -5 -9
-6 0 -8 -5 -4 -11 4 -8 0 -8 -15 0 -18 10 -20 9 -14 -5 4 -11 2 -15 -4 -11 -6
4 -13 2 -15 -4 -4 -13 -57 -19 -64 -7 -3 4 -11 5 -17 1 -12 -8 -17 -9 -38 -12
-5 0 -7 -7 -3 -13 5 -9 2 -9 -9 1 -10 7 -17 9 -17 3 0 -11 -18 -11 -36 1 -6 3
-14 3 -18 0 -12 -12 -36 -12 -36 0 0 8 -3 8 -8 2 -8 -12 -53 -15 -46 -3 7 11
-3 10 -28 -3 -16 -9 -19 -8 -13 2 6 8 4 10 -6 3 -8 -5 -20 -9 -28 -9 -8 0 -16
-6 -19 -14 -3 -9 0 -11 8 -6 9 5 11 4 6 -4 -6 -9 -11 -9 -22 0 -12 10 -13 9
-8 -5 5 -14 3 -15 -21 -6 -24 9 -26 9 -16 -4 10 -12 8 -16 -8 -21 -12 -3 -21
-11 -21 -16 0 -6 -5 -7 -12 -3 -7 5 -8 3 -2 -7 18 -30 12 -45 -18 -40 -4 0 -5
-6 -2 -14 4 -10 0 -13 -15 -10 -12 2 -20 -1 -18 -8 1 -7 -8 -12 -20 -12 -12 0
-26 -5 -30 -9 -5 -5 -2 -6 6 -1 10 6 12 4 7 -4 -5 -7 -14 -10 -22 -7 -9 3 -11
0 -7 -11 4 -10 2 -14 -5 -9 -6 3 -14 1 -18 -5 -4 -7 -3 -9 4 -5 6 4 10 -1 9
-13 -1 -13 -5 -17 -12 -11 -7 6 -11 2 -11 -10 0 -10 5 -16 11 -12 5 3 4 -2 -4
-11 -18 -22 -32 -22 -25 1 5 13 4 14 -4 3 -5 -7 -14 -11 -20 -7 -6 3 -14 1
-18 -5 -4 -7 -3 -9 4 -5 6 3 13 2 16 -3 4 -5 0 -8 -6 -7 -25 3 -37 17 -31 33
4 11 3 14 -5 9 -7 -4 -12 -2 -12 4 0 6 -4 8 -10 5 -5 -3 -10 -2 -10 4 0 11
-46 8 -58 -4 -4 -4 -1 -5 6 -1 6 4 12 3 12 -2 0 -17 -13 -21 -34 -10 -18 10
-19 9 -9 -3 10 -12 8 -15 -8 -15 -10 0 -19 5 -19 11 0 5 -5 3 -10 -5 -6 -10
-10 -11 -10 -2 0 6 -9 12 -21 12 -12 0 -17 4 -13 11 4 8 1 8 -12 2 -21 -10
-55 -10 -73 1 -6 4 -11 2 -11 -4 0 -7 -8 -9 -19 -5 -22 7 -53 -4 -45 -16 5 -9
-10 -13 -30 -10 -5 1 -4 -4 1 -11 8 -9 8 -18 -1 -30 -7 -10 -16 -15 -19 -11
-4 3 -7 0 -7 -9 0 -17 -34 -51 -42 -43 -3 3 -8 -1 -12 -10 -3 -9 -2 -14 3 -11
5 4 7 -3 4 -13 -3 -13 -12 -18 -24 -16 -12 3 -19 -2 -20 -13 0 -10 -3 -12 -6
-4 -2 6 -9 12 -14 12 -4 0 -6 -7 -2 -16 5 -14 3 -15 -18 -4 -21 12 -23 12 -11
-3 11 -13 11 -15 0 -13 -7 1 -18 5 -24 9 -6 3 -14 3 -18 0 -12 -12 -36 -12
-36 0 0 8 -3 8 -8 2 -4 -6 -14 -10 -22 -10 -8 1 -24 -5 -34 -12 -16 -10 -23
-10 -35 0 -8 7 -12 7 -9 2 4 -7 -3 -11 -18 -11 -13 0 -24 4 -24 9 0 5 6 7 13
4 8 -3 14 1 14 8 0 11 -5 11 -19 4 -14 -7 -24 -7 -34 2 -8 6 -17 9 -21 5 -3
-3 -1 -6 5 -6 7 0 12 -5 12 -11 0 -5 -6 -7 -12 -3 -8 5 -7 0 2 -11 9 -11 10
-16 3 -11 -7 4 -13 2 -13 -3 0 -6 -5 -11 -11 -11 -5 0 -7 5 -3 12 4 7 3 8 -4
4 -8 -5 -9 -13 -2 -25 12 -23 -20 -57 -37 -40 -7 7 -14 4 -24 -8 -13 -16 -12
-17 4 -4 9 7 17 9 17 3 0 -16 -31 -23 -46 -11 -13 11 -18 6 -15 -14 1 -4 -7
-7 -16 -5 -13 2 -18 -3 -17 -18 1 -12 -8 -26 -18 -33 -16 -10 -18 -10 -13 0 6
8 4 10 -4 5 -7 -5 -10 -14 -7 -22 3 -9 -1 -14 -12 -15 -10 0 -12 -3 -4 -6 6
-2 12 -9 12 -14 0 -6 -5 -7 -12 -3 -7 5 -8 3 -2 -7 11 -19 13 -58 2 -65 -4 -3
-5 -10 -2 -16 5 -7 1 -9 -9 -5 -11 4 -14 2 -11 -8 3 -7 -3 -18 -14 -24 -14 -8
-18 -20 -17 -52 1 -24 7 -45 13 -47 7 -2 12 -10 12 -18 0 -9 4 -13 8 -10 4 2
14 -4 21 -16 10 -16 10 -19 -1 -12 -10 6 -10 4 1 -9 11 -15 11 -17 -2 -17 -8
0 -18 -7 -21 -16 -5 -14 -4 -15 9 -4 13 11 14 10 9 -4 -3 -9 -10 -16 -15 -16
-5 0 -9 -8 -9 -18 0 -10 -15 -39 -34 -63 -24 -32 -33 -54 -33 -81 1 -21 5 -38
9 -38 4 0 8 -13 8 -30 0 -19 -5 -30 -14 -30 -11 0 -13 -12 -11 -50 4 -52 24
-120 36 -120 3 0 36 14 72 30 43 19 83 30 112 30 41 0 50 -4 85 -42 22 -24 40
-49 40 -55 0 -13 5 -15 52 -17 15 0 27 -5 27 -9 0 -5 7 -14 16 -20 8 -7 18
-30 22 -52 9 -61 28 -68 70 -30 70 64 106 85 145 85 28 0 45 -7 61 -24 12 -12
40 -29 62 -36 47 -15 107 -49 118 -66 23 -38 40 -46 89 -39 44 6 48 5 42 -12
-5 -17 -5 -17 9 0 8 9 26 17 41 17 14 0 26 5 26 11 0 17 89 1 128 -23 17 -11
32 -23 32 -27 0 -4 13 -6 29 -3 16 2 45 -5 67 -16 21 -10 55 -22 75 -26 19 -3
44 -14 55 -24 27 -23 82 -52 100 -52 8 0 14 -7 14 -15 0 -10 11 -15 35 -15 19
0 35 -5 35 -11 0 -5 5 -7 10 -4 6 3 10 -3 10 -14 0 -12 4 -21 10 -21 5 0 7 8
4 18 -3 10 0 9 8 -5 7 -12 17 -22 21 -22 5 1 11 -2 14 -4 2 -3 -7 -4 -22 -3
-33 4 -19 -11 14 -16 24 -3 25 -6 22 -61 -2 -44 2 -63 15 -78 10 -11 12 -19 6
-19 -7 0 -12 5 -12 10 0 6 -5 10 -12 10 -7 0 -6 -6 4 -17 24 -29 30 -54 14
-67 -17 -14 -28 -83 -14 -92 6 -4 5 -10 -3 -15 -11 -7 -11 -9 -1 -9 9 0 10 -5
2 -19 -7 -14 -7 -22 0 -26 6 -4 7 -12 3 -18 -13 -20 -9 -41 11 -56 14 -11 15
-15 5 -23 -11 -6 -7 -14 16 -33 17 -14 27 -25 22 -25 -4 0 0 -14 8 -30 9 -17
20 -28 24 -25 5 3 7 -4 4 -15 -3 -11 -10 -23 -16 -27 -6 -3 -7 -1 -3 5 4 7 2
12 -4 12 -6 0 -9 4 -6 9 3 5 -10 32 -29 61 -19 29 -35 55 -35 59 0 5 -9 18
-20 31 -16 18 -18 31 -13 69 4 25 7 118 8 206 l0 160 -24 3 c-13 2 -26 12 -28
23 -3 10 -10 19 -15 19 -5 0 -7 4 -4 9 7 11 -16 31 -41 35 -34 7 -47 -10 -49
-61 -1 -26 -2 -48 -3 -48 -1 0 -4 -29 -6 -65 -3 -36 -7 -81 -10 -100 -15 -117
5 -286 35 -305 6 -3 10 -15 10 -25 0 -11 9 -35 19 -54 16 -27 19 -54 19 -141
0 -93 -2 -106 -15 -101 -13 5 -14 4 -3 -9 23 -27 2 -102 -64 -224 -34 -64 -68
-132 -76 -151 -17 -40 -32 -57 -120 -128 -36 -28 -85 -70 -108 -92 -24 -22
-46 -40 -48 -40 -3 0 -15 -10 -27 -21 -12 -12 -51 -41 -87 -65 -150 -100 -145
-126 6 -32 59 37 104 49 104 28 0 -21 -59 -140 -69 -140 -6 0 -11 -5 -11 -11
0 -15 -50 -79 -62 -79 -5 0 -24 -11 -42 -25 -18 -14 -38 -25 -43 -25 -6 0 -13
-6 -16 -13 -6 -15 36 3 83 36 13 9 37 17 52 17 25 0 27 -3 26 -35 -1 -20 -5
-38 -10 -41 -4 -3 -8 -18 -8 -33 0 -36 -56 -125 -75 -117 -9 3 -12 0 -8 -10 3
-8 -8 -34 -23 -57 -72 -106 -80 -124 -38 -83 78 77 114 84 114 24 0 -60 -38
-142 -92 -198 -54 -58 -72 -83 -99 -140 -55 -112 -58 -140 -30 -214 18 -46 22
-25 5 24 -15 41 -14 49 1 95 10 28 27 68 39 90 28 53 105 155 117 155 11 0 69
117 69 140 0 9 5 21 11 27 5 5 10 39 10 74 0 35 4 78 9 94 5 17 14 56 20 88
10 50 14 57 35 57 19 0 24 -7 30 -37 3 -21 15 -69 27 -107 21 -75 19 -164 -6
-189 -7 -7 -16 -26 -20 -42 -4 -17 -15 -38 -23 -47 -9 -10 -13 -18 -9 -18 4 0
-4 -21 -17 -47 -52 -101 -67 -131 -112 -222 -46 -95 -57 -145 -17 -77 12 20
28 39 37 42 8 4 15 12 15 19 0 6 12 34 26 61 15 27 49 92 76 144 27 52 51 96
52 98 2 2 15 0 30 -4 l26 -6 -4 -167 c-3 -117 -9 -179 -20 -211 -20 -58 -20
-60 4 -60 14 0 20 -7 20 -22 0 -13 12 -63 26 -113 13 -49 36 -144 50 -210 13
-66 30 -130 36 -142 10 -20 7 -69 -9 -131 -4 -17 -1 -22 14 -22 14 0 24 -13
35 -47 l16 -48 1 40 c0 22 -9 83 -20 135 -32 144 -34 159 -15 166 9 3 24 0 34
-7 9 -7 -2 7 -26 31 -26 28 -46 60 -52 85 -6 22 -15 54 -20 71 -15 45 -12 82
6 92 14 8 12 17 -19 78 l-36 69 9 97 c4 53 11 102 15 107 3 6 2 11 -4 11 -6 0
-8 20 -5 52 15 156 15 158 33 158 9 0 22 -5 29 -12 9 -9 12 -6 12 15 0 17 5
27 15 27 19 0 155 -128 155 -146 0 -8 5 -14 11 -14 12 0 24 -13 55 -56 8 -12
18 -41 23 -65 8 -40 9 -41 10 -11 1 26 5 32 24 32 12 0 37 -14 56 -32 32 -29
33 -30 26 -7 -4 13 -8 24 -9 24 -10 3 -175 132 -176 138 0 5 -19 28 -42 53
-23 24 -49 54 -57 65 -9 12 -26 31 -38 44 -13 13 -23 31 -23 39 0 8 -5 18 -10
21 -12 8 -70 119 -116 222 -58 130 -78 254 -39 239 11 -4 11 1 4 24 -14 40 3
95 48 154 49 64 72 80 168 118 64 26 94 32 152 32 83 -1 103 -12 103 -60 0
-35 -28 -61 -55 -50 -9 3 -12 0 -8 -10 7 -20 -15 -44 -42 -44 -14 0 -25 -7
-28 -19 -8 -32 27 -13 95 50 35 32 70 59 79 59 44 0 62 -143 33 -255 -8 -33
-19 -78 -24 -100 -4 -22 -13 -55 -19 -74 -6 -19 -8 -38 -5 -42 3 -5 -2 -31
-10 -59 -12 -39 -13 -62 -5 -108 6 -31 14 -88 19 -127 7 -60 48 -197 65 -213
12 -12 3 39 -21 122 -14 49 -24 98 -22 110 1 11 -2 28 -7 36 -5 7 -8 68 -6
135 2 106 5 124 25 155 12 19 26 48 30 65 4 16 23 51 42 77 19 27 34 55 34 63
0 18 36 38 55 31 10 -4 12 3 8 30 -5 30 -1 38 33 70 38 36 39 36 104 31 61 -6
129 -24 140 -38 3 -4 21 -15 40 -26 19 -11 39 -29 45 -41 5 -12 13 -22 17 -22
5 0 8 -8 8 -18 0 -11 11 -24 25 -30 22 -10 25 -18 25 -59 0 -27 -5 -67 -10
-90 -8 -32 -40 -243 -40 -259 0 -1 -6 -9 -13 -16 -22 -23 -97 -144 -97 -156 0
-7 -6 -12 -13 -12 -8 0 -22 -17 -33 -38 -10 -20 -21 -39 -24 -42 -3 -3 -11
-15 -17 -28 -31 -54 -41 -67 -86 -115 -118 -122 -259 -343 -312 -487 -39 -106
-75 -222 -75 -238 1 -28 38 50 71 150 17 51 64 161 104 244 77 158 80 162 303
390 19 20 52 18 52 -3 1 -10 9 5 19 34 18 49 76 144 94 151 4 2 7 9 7 17 0 20
27 37 50 30 11 -3 20 -14 20 -23 0 -9 12 -52 26 -94 l27 -78 -27 -40 c-14 -22
-26 -42 -26 -46 0 -6 -61 -96 -71 -104 -4 -3 -21 -29 -39 -57 -17 -29 -36 -53
-41 -53 -5 0 -9 -11 -9 -24 0 -13 -3 -26 -8 -28 -10 -4 -63 -115 -97 -203 -15
-38 -30 -72 -35 -75 -4 -3 -11 -16 -15 -28 -6 -22 -5 -23 14 -12 12 6 32 28
46 48 14 20 31 46 39 57 8 11 22 45 30 76 17 68 52 136 105 209 23 30 53 76
68 102 28 48 49 60 59 34 3 -8 14 -16 24 -19 14 -4 20 -16 23 -53 2 -27 3 12
3 87 l-1 136 40 59 c22 32 47 66 56 74 8 9 28 46 44 83 39 92 63 90 77 -8 4
-28 5 3 2 70 -3 92 -1 125 9 139 24 33 45 13 51 -46 32 -341 35 -479 10 -532
-10 -20 -21 -36 -25 -36 -4 0 -10 -11 -13 -25 -4 -14 -11 -25 -16 -25 -6 0
-10 -5 -10 -11 0 -25 -83 -139 -101 -139 -17 0 -17 -3 -7 -19 9 -15 15 -17 25
-9 7 6 13 17 13 24 0 8 9 14 21 14 11 0 17 4 14 11 -8 12 22 79 34 79 5 0 12
11 15 25 4 16 13 25 26 25 18 0 20 -7 21 -72 l1 -73 17 55 c10 30 26 104 36
163 16 92 17 119 7 185 -7 42 -12 98 -12 125 0 26 -7 91 -15 145 -8 53 -12
106 -10 117 2 11 4 26 4 33 2 35 71 -22 71 -60 0 -7 9 -19 20 -26 13 -8 20
-23 20 -42 0 -20 5 -30 15 -30 8 0 15 -4 15 -10 0 -5 4 -10 9 -10 4 0 6 11 3
25 -3 15 0 25 8 25 6 0 -2 18 -19 39 -19 24 -31 50 -31 69 0 25 -5 30 -30 35
-16 4 -30 11 -30 17 0 6 -9 20 -20 32 -11 12 -20 27 -20 34 0 6 -13 26 -29 43
-25 27 -68 96 -129 208 -30 53 10 69 70 28 20 -14 41 -25 46 -25 5 0 15 -7 22
-15 7 -8 20 -15 29 -15 9 0 26 -6 37 -13 88 -51 82 -49 95 -25 9 19 9 21 -2
11 -16 -16 -33 -17 -23 -1 5 7 3 8 -6 3 -10 -6 -12 -4 -6 10 5 15 4 16 -9 5
-12 -10 -16 -9 -21 4 -3 9 -10 13 -15 10 -5 -3 -9 2 -9 11 0 11 -7 15 -22 13
-16 -2 -26 5 -36 26 -11 22 -16 25 -23 15 -8 -11 -13 -9 -29 10 -11 12 -17 27
-14 32 3 5 -3 6 -12 2 -12 -5 -15 -3 -9 6 6 10 2 11 -16 6 -20 -7 -22 -6 -12
7 10 12 2 19 -47 42 -34 16 -60 35 -60 44 0 9 -7 13 -20 9 -13 -3 -20 0 -20
10 0 10 -6 13 -16 9 -8 -3 -13 -2 -10 3 3 5 -6 12 -20 15 -41 11 -94 48 -159
112 -56 55 -79 82 -138 158 -12 16 -30 38 -39 48 -10 10 -18 20 -18 23 0 3 0
9 0 13 0 5 -19 29 -41 53 -23 24 -48 54 -56 66 -8 13 -19 21 -23 18 -9 -5 -60
87 -60 109 0 9 -5 16 -11 16 -6 0 -9 9 -6 19 4 15 0 19 -14 16 -23 -5 -24 -1
-4 18 13 14 11 15 -20 13 -37 -3 -66 16 -44 30 8 5 10 3 4 -7 -5 -8 -4 -10 0
-6 5 4 10 14 11 23 2 12 -1 13 -11 4 -10 -9 -19 -9 -32 0 -15 10 -15 11 -1 6
11 -3 15 -1 12 8 -7 18 22 41 32 25 4 -8 3 -9 -4 -5 -7 4 -12 2 -12 -3 0 -6 9
-11 20 -11 11 0 19 -3 19 -7 -3 -19 2 -33 11 -33 6 0 10 6 9 13 -4 35 2 58 14
51 7 -5 6 0 -3 11 -14 17 -13 18 5 11 16 -6 17 -5 8 5 -10 10 -9 15 5 26 9 8
11 12 5 8 -14 -7 -18 11 -5 19 5 3 8 35 8 73 -1 48 3 72 14 81 13 12 13 13 -1
9 -15 -5 -16 5 -12 94 4 79 2 99 -8 99 -11 0 -11 3 1 10 10 6 11 10 3 10 -9 0
-13 15 -13 43 0 24 -6 49 -12 56 -11 11 -10 12 1 6 9 -5 7 1 -4 19 -10 14 -21
26 -26 26 -4 0 -13 10 -19 23 -11 21 -10 21 4 3 9 -11 16 -15 16 -9 0 14 -27
36 -37 30 -5 -3 -7 12 -5 34 2 21 8 36 13 33 5 -3 9 4 9 16 0 12 5 18 10 15 6
-3 10 -1 10 6 0 8 5 7 17 -2 11 -10 14 -10 9 -1 -12 20 3 35 22 20 13 -11 14
-11 8 0 -6 9 -3 12 10 10 10 -2 19 2 19 9 0 6 4 15 9 20 5 5 6 2 1 -6 -6 -11
-3 -13 16 -7 23 7 50 12 77 15 7 0 11 5 8 10 -3 5 6 12 19 15 14 4 24 10 22
14 -3 4 7 18 21 32 13 14 22 19 18 13 -12 -21 7 -15 29 10 11 13 18 18 15 12
-3 -6 2 -3 11 6 13 14 19 15 28 6 7 -7 12 -7 11 -2 -5 22 1 25 21 14 15 -8 19
-8 15 0 -5 7 2 11 16 11 18 0 20 2 8 10 -11 7 -3 10 30 10 33 0 41 -3 30 -10
-13 -8 -12 -10 3 -10 10 0 16 -4 13 -9 -3 -5 1 -12 10 -15 10 -4 13 -2 9 7 -4
6 0 4 9 -7 8 -10 20 -15 27 -10 8 4 10 3 5 -4 -4 -7 -1 -12 6 -12 9 0 9 -3 -2
-10 -12 -8 -10 -10 8 -10 13 0 20 -4 17 -10 -4 -7 6 -10 29 -8 19 1 34 6 33
12 -1 5 9 13 23 17 14 4 18 8 10 9 -32 4 39 18 98 19 43 1 61 4 56 12 -4 7 1
7 16 -1 20 -11 22 -10 16 5 -5 14 -4 16 7 7 8 -7 17 -9 21 -5 4 4 4 -1 0 -11
-5 -13 -2 -17 12 -14 14 2 20 -4 22 -21 3 -19 6 -21 13 -10 7 11 9 11 9 -3 0
-10 7 -15 18 -13 9 1 23 -3 31 -9 12 -9 13 -8 7 4 -5 8 3 3 18 -12 30 -31 46
-38 25 -10 -7 9 7 -2 31 -26 25 -23 46 -38 48 -32 3 7 9 7 20 -2 14 -12 14
-10 2 12 -12 22 -12 24 2 12 13 -10 17 -10 22 4 3 9 3 21 -1 27 -4 7 2 5 12
-3 13 -10 16 -11 11 -2 -5 9 0 21 13 33 12 11 19 24 16 29 -3 6 0 7 8 4 8 -3
18 0 22 5 3 6 11 9 16 6 5 -4 9 -1 9 6 0 8 4 8 15 -1 13 -11 14 -10 9 5 -6 14
-4 16 6 10 9 -6 11 -4 5 4 -8 14 22 47 43 46 7 0 16 -6 21 -13 5 -8 12 -13 17
-12 5 0 11 -7 13 -17 5 -25 14 -29 61 -25 36 4 40 7 40 32 0 46 10 60 41 60
26 0 29 3 29 33 0 25 -6 37 -23 46 -17 9 -24 21 -24 42 0 20 5 28 13 25 8 -3
11 0 7 10 -3 7 -10 14 -17 14 -6 0 -5 4 3 9 8 5 22 8 31 6 9 -2 17 3 17 10 0
8 -4 12 -9 9 -4 -3 -5 3 -1 12 5 13 3 16 -10 11 -9 -3 -17 -2 -17 3 0 6 -3 9
-7 9 -5 -1 -15 -1 -23 0 -13 1 -13 2 0 11 13 9 13 10 0 10 -13 0 -13 1 0 10
12 7 12 10 1 10 -7 0 -11 6 -7 15 3 8 0 15 -7 15 -8 0 -12 11 -11 28 1 15 3
33 3 40 1 7 6 10 13 6 8 -5 9 -2 4 11 -4 11 -2 22 6 27 10 6 9 8 -4 9 -35 3
-38 4 -37 14 0 6 6 9 14 9 11 -1 10 4 -3 24 -12 19 -13 24 -3 17 11 -6 13 -4
8 9 -4 9 -3 14 2 11 11 -6 25 31 16 44 -3 5 -1 12 5 16 7 4 7 12 0 25 -7 14
-5 24 11 42 11 12 17 17 13 9 -4 -9 -3 -12 4 -7 6 4 8 14 5 23 -5 12 -3 14 7
8 10 -6 11 -4 4 6 -13 21 -14 39 -2 39 6 0 1 9 -11 19 -16 14 -18 21 -9 24 10
4 10 6 1 6 -7 1 -13 8 -13 17 0 8 -4 13 -8 10 -5 -3 -9 1 -9 9 0 8 5 11 11 8
6 -4 5 1 -3 10 -7 9 -11 24 -7 32 3 10 -1 15 -12 16 -11 0 -13 2 -4 6 10 4 9
9 -5 20 -10 8 -11 11 -3 7 13 -7 13 -5 1 9 -7 9 -19 17 -27 17 -7 0 -16 5 -20
12 -5 7 -3 8 5 3 10 -6 11 -3 2 12 -6 11 -7 24 -3 28 4 5 1 5 -6 1 -7 -4 -9
-12 -6 -18 5 -7 2 -8 -5 -4 -7 5 -10 10 -7 13 3 3 -1 12 -9 19 -8 8 -12 21 -8
30 3 8 2 14 -3 13 -23 -4 -34 3 -34 21 0 11 -6 20 -12 20 -10 0 -9 3 1 9 11 7
11 9 0 14 -12 5 -12 7 -1 15 11 7 9 10 -7 15 -14 3 -19 1 -14 -6 4 -6 0 -8
-10 -4 -12 4 -14 2 -10 -10 4 -10 2 -14 -4 -10 -6 4 -14 1 -16 -5 -3 -8 -6 -5
-6 5 -1 17 -2 17 -17 3 -18 -18 -39 -22 -28 -4 5 7 3 8 -7 2 -24 -14 -51 -16
-43 -2 5 9 2 9 -9 -1 -15 -12 -17 -11 -17 2 0 9 -4 19 -10 22 -6 3 -7 -1 -4
-10 5 -11 2 -14 -10 -9 -9 3 -16 15 -16 25 0 10 -5 19 -11 19 -5 0 -7 -5 -4
-11 5 -7 -3 -9 -24 -6 -23 4 -31 1 -31 -10 0 -12 -2 -12 -16 1 -19 20 -25 20
-18 3 3 -10 -5 -14 -30 -13 -19 1 -33 3 -30 5 2 2 -4 10 -14 17 -12 9 -22 9
-36 2 -16 -9 -18 -7 -13 6 4 10 3 15 -2 11 -5 -3 -17 2 -26 11 -15 16 -16 16
-13 -2 2 -15 -3 -18 -24 -18 -48 2 -50 3 -45 25 3 12 3 18 0 15 -4 -3 -13 0
-21 7 -13 10 -14 9 -7 -3 7 -12 6 -13 -6 -4 -8 6 -24 10 -36 9 -13 -1 -24 2
-24 7 -2 9 -5 25 -9 36 -1 4 -1 12 0 17 1 6 -1 7 -5 3 -4 -4 -16 2 -28 12 -14
14 -24 17 -32 10 -15 -12 -39 12 -27 26 4 4 -2 2 -12 -6 -13 -10 -17 -10 -12
-2 5 8 0 12 -14 12 -12 0 -18 4 -15 11 4 6 0 9 -11 7 -13 -2 -20 4 -22 20 -2
12 -8 22 -13 22 -5 0 -9 5 -9 11 0 5 5 7 11 3 8 -4 8 -1 1 12 -12 24 -4 86 13
101 4 4 5 3 1 -4 -3 -6 -3 -14 2 -17 13 -8 11 28 -2 36 -7 5 -5 8 4 8 9 0 16
10 17 22 2 16 0 19 -6 9 -6 -9 -10 -10 -16 -2 -4 7 -1 20 6 29 11 14 11 15 -1
5 -8 -7 -20 -13 -28 -13 -8 0 -10 5 -6 13 6 9 5 9 -7 0 -12 -10 -18 -10 -29 0
-10 10 -11 9 -5 -3 7 -12 6 -13 -7 -3 -8 7 -17 10 -21 7 -3 -3 -4 5 -3 18 2
14 -5 35 -16 47 -10 13 -18 18 -18 12 0 -13 -22 -10 -32 4 -5 6 -8 6 -8 -2 0
-12 -17 -12 -37 0 -6 4 -14 3 -17 -2 -7 -10 -25 -9 -43 2 -6 4 -14 3 -17 -1
-6 -11 -46 -10 -64 1 -7 5 -9 14 -5 20 4 7 0 6 -10 -2 -9 -7 -17 -9 -17 -4 0
9 -6 11 -50 15 -13 2 -19 7 -15 16 3 9 0 12 -9 9 -8 -3 -17 -1 -19 6 -2 7 -7
1 -12 -12z m380 -80 c3 -5 2 -12 -3 -15 -5 -3 -9 1 -9 9 0 17 3 19 12 6z m246
-368 c13 -16 12 -17 -3 -4 -10 7 -18 15 -18 17 0 8 8 3 21 -13z m-1271 -1165
c0 -5 10 -4 21 3 15 8 19 8 15 0 -7 -10 7 -16 28 -12 5 1 3 -6 -5 -15 -9 -12
-9 -15 -1 -10 6 4 12 3 12 -3 0 -5 -6 -12 -12 -15 -7 -3 -3 -3 10 0 12 3 22 2
21 -3 -1 -4 0 -10 1 -13 6 -16 5 -92 -2 -96 -4 -3 -8 0 -8 7 0 8 -4 8 -15 -1
-10 -9 -15 -9 -15 -1 0 6 -10 11 -22 12 -13 0 -17 3 -10 6 6 2 12 9 12 14 0 4
-7 5 -17 2 -11 -4 -14 -3 -9 6 5 7 2 10 -6 9 -7 -2 -12 4 -10 12 2 8 0 11 -5
7 -8 -8 -9 -12 -12 -38 -1 -8 -5 -9 -14 0 -8 6 -18 7 -22 3 -5 -4 -5 -2 -1 5
4 7 14 9 24 6 15 -6 15 -4 -2 22 -13 20 -14 26 -4 18 12 -10 15 -10 15 2 0 8
-2 13 -5 10 -3 -2 -12 0 -22 5 -14 8 -17 22 -11 60 2 9 71 6 71 -2z m2181 -35
c13 -16 12 -17 -3 -4 -10 7 -18 15 -18 17 0 8 8 3 21 -13z m-1577 -5 c-5 -7
-3 -8 7 -2 25 16 39 13 40 -9 1 -12 2 -29 3 -37 0 -8 -3 -18 -9 -22 -6 -5 -4
-8 4 -8 11 0 10 -4 -5 -16 -10 -8 -14 -13 -7 -10 6 4 15 1 19 -5 5 -8 3 -9 -5
-5 -8 5 -14 0 -18 -14 -3 -12 -11 -19 -19 -16 -9 3 -11 0 -7 -12 6 -15 5 -15
-10 -3 -13 10 -17 10 -17 1 0 -9 -4 -9 -17 1 -14 12 -15 12 -9 0 6 -9 1 -8
-16 3 -14 9 -28 13 -33 9 -4 -5 -3 1 2 12 6 11 8 26 6 33 -3 7 -1 18 4 25 5 7
9 19 8 27 -1 17 26 41 37 34 5 -3 8 0 8 6 0 6 4 9 9 5 5 -3 12 -1 16 5 3 5 8
10 11 10 3 0 2 -5 -2 -12z m171 -15 c-4 -10 -7 -25 -8 -33 0 -22 -18 -42 -33
-36 -8 3 -11 0 -7 -10 3 -7 0 -14 -6 -14 -6 0 -11 15 -11 33 0 26 6 37 25 47
14 7 25 17 25 22 0 4 5 8 11 8 7 0 8 -7 4 -17z m-566 -56 c3 0 13 -3 21 -8 10
-5 11 -8 3 -9 -7 0 -13 -5 -13 -11 0 -5 4 -8 8 -5 4 2 8 -13 7 -35 0 -21 -2
-39 -5 -40 -3 0 -13 -2 -22 -4 -13 -2 -18 3 -18 20 0 13 -5 25 -11 27 -5 2
-12 16 -13 30 -2 18 1 25 8 21 6 -3 5 0 -1 8 -7 7 -13 20 -13 28 0 11 5 10 21
-5 12 -10 24 -18 28 -17z m-269 -23 c0 5 6 3 14 -3 10 -8 16 -9 21 -1 9 15 25
2 19 -15 -4 -10 0 -12 14 -8 24 6 50 -31 30 -43 -7 -5 -8 -3 -3 6 5 8 4 11 -3
6 -6 -4 -9 -13 -6 -21 5 -11 -2 -13 -30 -11 -20 2 -42 8 -49 15 -8 6 -17 8
-20 4 -4 -3 -7 0 -7 8 0 12 -2 12 -10 -1 -7 -11 -11 -8 -20 15 -9 23 -8 30 5
37 8 5 15 16 15 25 0 14 2 14 15 -3 8 -10 15 -15 15 -10z m856 -85 c7 -12 -16
-39 -37 -42 -8 -2 -20 -6 -26 -10 -9 -6 -11 -3 -7 7 7 17 -11 22 -21 6 -3 -5
-15 -10 -26 -10 -10 0 -19 5 -19 10 0 6 9 10 19 10 27 0 52 11 46 19 -2 4 9 7
25 6 16 -1 27 2 24 7 -3 4 -1 8 5 8 5 0 13 -5 17 -11z m589 -1777 c-3 -3 -11
0 -18 7 -9 10 -8 11 6 5 10 -3 15 -9 12 -12z m-150 -183 c4 -6 14 -8 22 -5 8
4 11 1 8 -5 -4 -6 1 -9 11 -7 15 2 18 -2 16 -19 -3 -18 0 -21 14 -16 11 4 15
3 11 -4 -4 -6 -2 -13 5 -15 13 -5 19 -198 5 -198 -4 0 -3 -9 3 -20 8 -14 8
-20 0 -20 -6 0 -8 -5 -5 -10 4 -6 1 -18 -7 -27 -9 -12 -9 -15 0 -9 6 4 12 2
12 -3 0 -6 -4 -11 -10 -11 -5 0 -10 -11 -10 -24 0 -13 -7 -29 -15 -36 -8 -7
-13 -16 -10 -20 3 -4 -2 -20 -10 -36 -7 -15 -11 -32 -8 -37 3 -6 1 -7 -5 -3
-8 5 -12 0 -12 -14 0 -11 -7 -23 -15 -26 -8 -4 -12 -10 -9 -15 3 -5 1 -9 -4
-9 -5 0 -12 -10 -16 -22 -4 -18 -8 -20 -17 -11 -10 10 -16 10 -28 0 -9 -8 -12
-8 -8 -1 4 7 0 17 -8 24 -8 7 -15 18 -15 24 0 6 5 4 11 -4 9 -13 10 -13 5 0
-3 8 -9 23 -12 33 -4 9 -11 17 -18 17 -6 0 -4 5 4 10 10 6 11 10 3 10 -8 0
-13 15 -13 40 0 24 5 40 12 40 6 0 8 3 5 7 -4 3 -1 13 6 21 10 13 9 14 -2 7
-10 -6 -12 -4 -7 4 5 7 14 10 22 7 7 -3 16 0 20 6 4 7 3 8 -4 4 -7 -4 -12 -1
-12 8 0 9 6 13 14 10 9 -3 13 1 13 13 -1 10 4 17 11 15 8 -1 11 2 7 8 -3 5 -1
10 6 10 8 0 7 5 -2 17 -10 11 -10 14 -1 9 9 -5 12 9 12 58 0 62 2 66 23 67 12
0 16 3 9 6 -10 4 -10 8 0 21 10 12 10 14 1 8 -12 -6 -15 0 -12 20 0 4 -5 11
-13 15 -7 5 -8 9 -2 9 14 0 11 34 -5 54 -13 15 -8 36 9 36 5 0 12 -5 15 -11z"/>
<path d="M3756 4912 c-3 -5 1 -9 9 -9 8 0 12 4 9 9 -3 4 -7 8 -9 8 -2 0 -6 -4
-9 -8z"/>
<path d="M3223 4885 c0 -8 4 -12 9 -9 5 3 6 10 3 15 -9 13 -12 11 -12 -6z"/>
<path d="M2990 4809 c0 -5 5 -7 10 -4 6 3 10 8 10 11 0 2 -4 4 -10 4 -5 0 -10
-5 -10 -11z"/>
<path d="M4290 2800 c-9 -6 -10 -10 -3 -10 6 0 15 5 18 10 8 12 4 12 -15 0z"/>
<path d="M3526 6558 c3 -5 10 -6 15 -3 13 9 11 12 -6 12 -8 0 -12 -4 -9 -9z"/>
<path d="M3185 6550 c-3 -6 1 -7 9 -4 18 7 21 14 7 14 -6 0 -13 -4 -16 -10z"/>
<path d="M1756 6268 c3 -5 10 -6 15 -3 13 9 11 12 -6 12 -8 0 -12 -4 -9 -9z"/>
<path d="M1686 6252 c-3 -5 1 -9 9 -9 8 0 12 4 9 9 -3 4 -7 8 -9 8 -2 0 -6 -4
-9 -8z"/>
<path d="M2402 6164 c-7 -8 -8 -14 -3 -14 10 0 25 19 20 25 -2 1 -10 -3 -17
-11z"/>
<path d="M4999 6163 c-13 -16 -12 -17 4 -4 9 7 17 15 17 17 0 8 -8 3 -21 -13z"/>
<path d="M4446 6068 c3 -5 10 -6 15 -3 13 9 11 12 -6 12 -8 0 -12 -4 -9 -9z"/>
<path d="M4616 6047 c3 -10 9 -15 12 -12 3 3 0 11 -7 18 -10 9 -11 8 -5 -6z"/>
<path d="M1963 5963 c0 -9 4 -10 14 -2 7 6 13 12 13 14 0 1 -6 2 -13 2 -8 0
-14 -6 -14 -14z"/>
<path d="M5170 5529 c0 -5 5 -7 10 -4 6 3 10 8 10 11 0 2 -4 4 -10 4 -5 0 -10
-5 -10 -11z"/>
<path d="M1615 5220 c3 -5 8 -10 11 -10 2 0 4 5 4 10 0 6 -5 10 -11 10 -5 0
-7 -4 -4 -10z"/>
<path d="M1450 5110 c0 -5 5 -10 10 -10 6 0 10 5 10 10 0 6 -4 10 -10 10 -5 0
-10 -4 -10 -10z"/>
<path d="M5656 4932 c-3 -5 1 -9 9 -9 8 0 12 4 9 9 -3 4 -7 8 -9 8 -2 0 -6 -4
-9 -8z"/>
<path d="M1455 4861 c-3 -5 -1 -12 5 -16 5 -3 10 1 10 9 0 18 -6 21 -15 7z"/>
<path d="M4705 4708 c11 -6 26 -19 33 -27 11 -14 11 -14 6 2 -4 10 -15 22 -25
27 -25 14 -38 12 -14 -2z"/>
<path d="M2630 4669 c0 -5 5 -7 10 -4 6 3 10 8 10 11 0 2 -4 4 -10 4 -5 0 -10
-5 -10 -11z"/>
<path d="M1760 4529 c0 -5 5 -7 10 -4 6 3 10 8 10 11 0 2 -4 4 -10 4 -5 0 -10
-5 -10 -11z"/>
<path d="M1505 4420 c-3 -5 -2 -10 4 -10 5 0 13 5 16 10 3 6 2 10 -4 10 -5 0
-13 -4 -16 -10z"/>
<path d="M2235 4410 c-3 -5 -1 -10 4 -10 6 0 11 5 11 10 0 6 -2 10 -4 10 -3 0
-8 -4 -11 -10z"/>
<path d="M2905 4270 c4 -6 11 -8 16 -5 14 9 11 15 -7 15 -8 0 -12 -5 -9 -10z"/>
<path d="M2855 4090 c3 -5 8 -10 11 -10 2 0 4 5 4 10 0 6 -5 10 -11 10 -5 0
-7 -4 -4 -10z"/>
<path d="M4960 4080 c0 -5 5 -10 11 -10 5 0 7 5 4 10 -3 6 -8 10 -11 10 -2 0
-4 -4 -4 -10z"/>
<path d="M2456 3901 c-4 -5 -2 -12 3 -15 5 -4 12 -2 15 3 4 5 2 12 -3 15 -5 4
-12 2 -15 -3z"/>
<path d="M5090 3810 c0 -5 5 -10 11 -10 5 0 7 5 4 10 -3 6 -8 10 -11 10 -2 0
-4 -4 -4 -10z"/>
<path d="M2850 3790 c0 -5 5 -10 10 -10 6 0 10 5 10 10 0 6 -4 10 -10 10 -5 0
-10 -4 -10 -10z"/>
<path d="M2320 3660 c0 -5 5 -10 11 -10 5 0 7 5 4 10 -3 6 -8 10 -11 10 -2 0
-4 -4 -4 -10z"/>
<path d="M4915 3660 c3 -5 8 -10 11 -10 2 0 4 5 4 10 0 6 -5 10 -11 10 -5 0
-7 -4 -4 -10z"/>
<path d="M4415 3580 c3 -5 8 -10 11 -10 2 0 4 5 4 10 0 6 -5 10 -11 10 -5 0
-7 -4 -4 -10z"/>
<path d="M4850 3410 c0 -5 5 -10 11 -10 5 0 7 5 4 10 -3 6 -8 10 -11 10 -2 0
-4 -4 -4 -10z"/>
<path d="M4920 3340 c0 -5 5 -10 11 -10 5 0 7 5 4 10 -3 6 -8 10 -11 10 -2 0
-4 -4 -4 -10z"/>
<path d="M3040 3270 c0 -5 5 -10 11 -10 5 0 7 5 4 10 -3 6 -8 10 -11 10 -2 0
-4 -4 -4 -10z"/>
<path d="M2775 3220 c-3 -5 -1 -10 4 -10 6 0 11 5 11 10 0 6 -2 10 -4 10 -3 0
-8 -4 -11 -10z"/>
<path d="M2430 2950 c0 -5 5 -10 11 -10 5 0 7 5 4 10 -3 6 -8 10 -11 10 -2 0
-4 -4 -4 -10z"/>
<path d="M4485 2950 c3 -5 8 -10 11 -10 2 0 4 5 4 10 0 6 -5 10 -11 10 -5 0
-7 -4 -4 -10z"/>
<path d="M3285 2910 c-3 -5 -1 -10 4 -10 6 0 11 5 11 10 0 6 -2 10 -4 10 -3 0
-8 -4 -11 -10z"/>
<path d="M4550 2909 c0 -5 5 -7 10 -4 6 3 10 8 10 11 0 2 -4 4 -10 4 -5 0 -10
-5 -10 -11z"/>
<path d="M3255 2870 c3 -5 8 -10 11 -10 2 0 4 5 4 10 0 6 -5 10 -11 10 -5 0
-7 -4 -4 -10z"/>
<path d="M2620 2814 c-30 -24 -68 -55 -84 -69 -16 -14 -32 -25 -36 -25 -14 0
-160 -143 -194 -190 -20 -28 -33 -50 -30 -50 3 0 26 23 51 50 25 28 51 50 59
50 20 0 17 -39 -5 -83 -11 -21 -14 -33 -7 -27 8 5 24 33 37 60 13 28 27 50 31
50 5 0 8 6 8 14 0 19 40 67 51 61 5 -4 7 0 4 7 -3 7 9 28 25 47 17 18 30 38
30 44 0 6 2 8 5 5 3 -3 20 8 38 23 17 15 46 39 62 53 53 44 12 27 -45 -20z"/>
<path d="M3700 2816 c0 -14 4 -27 9 -30 12 -8 22 20 15 39 -9 23 -24 18 -24
-9z"/>
<path d="M4680 2815 c-10 -13 -10 -19 4 -33 9 -10 16 -22 16 -26 0 -4 14 -27
30 -51 17 -24 30 -50 30 -57 1 -19 59 -86 60 -68 0 8 -9 29 -20 45 -27 41 -26
65 4 65 25 0 79 -53 91 -89 3 -12 11 -21 16 -21 5 0 9 -7 9 -15 0 -13 2 -14
14 -3 8 7 10 15 5 16 -6 2 -4 11 3 20 8 10 9 13 1 9 -15 -9 -43 29 -38 52 2
10 -3 18 -11 18 -11 0 -11 -3 -1 -16 11 -14 10 -14 -5 -2 -10 7 -18 19 -18 27
0 7 -9 16 -20 19 -11 3 -20 14 -20 22 0 9 -3 13 -7 10 -3 -4 -12 1 -20 11 -14
16 -14 16 -9 -2 6 -16 4 -17 -9 -6 -9 7 -14 19 -11 27 3 8 2 12 -3 8 -5 -3
-12 1 -14 7 -4 10 -6 10 -6 1 -1 -7 -5 -13 -11 -13 -5 0 -6 7 -3 17 4 11 3 14
-6 9 -14 -9 -43 12 -35 25 9 15 -3 10 -16 -6z"/>
<path d="M4018 2802 c-22 -4 -24 -32 -3 -32 9 0 18 7 22 15 7 19 3 22 -19 17z"/>
<path d="M3000 2750 c0 -4 9 -10 20 -13 11 -3 20 -2 20 3 0 4 -9 10 -20 13
-11 3 -20 2 -20 -3z"/>
<path d="M4610 2690 c0 -5 5 -10 11 -10 5 0 7 5 4 10 -3 6 -8 10 -11 10 -2 0
-4 -4 -4 -10z"/>
<path d="M3050 2678 c0 -9 5 -20 10 -23 13 -8 13 5 0 25 -8 13 -10 13 -10 -2z"/>
<path d="M2740 2579 c0 -5 5 -7 10 -4 6 3 10 8 10 11 0 2 -4 4 -10 4 -5 0 -10
-5 -10 -11z"/>
<path d="M4820 2548 c0 -7 5 -20 10 -28 8 -12 10 -9 10 13 0 15 -4 27 -10 27
-5 0 -10 -6 -10 -12z"/>
<path d="M3615 2380 c-3 -5 -1 -10 4 -10 6 0 11 5 11 10 0 6 -2 10 -4 10 -3 0
-8 -4 -11 -10z"/>
<path d="M3150 2370 c0 -5 5 -10 10 -10 6 0 10 5 10 10 0 6 -4 10 -10 10 -5 0
-10 -4 -10 -10z"/>
<path d="M2315 2280 c3 -5 8 -10 11 -10 2 0 4 5 4 10 0 6 -5 10 -11 10 -5 0
-7 -4 -4 -10z"/>
<path d="M3110 2191 c0 -6 4 -13 10 -16 6 -3 7 1 4 9 -7 18 -14 21 -14 7z"/>
<path d="M3161 2023 c-1 -18 3 -33 8 -33 5 0 12 -19 16 -42 4 -24 10 -36 12
-28 2 9 -5 42 -16 75 -17 52 -19 56 -20 28z"/>
<path d="M3105 1990 c3 -5 8 -10 11 -10 2 0 4 5 4 10 0 6 -5 10 -11 10 -5 0
-7 -4 -4 -10z"/>
<path d="M3950 1900 c0 -5 5 -10 11 -10 5 0 7 5 4 10 -3 6 -8 10 -11 10 -2 0
-4 -4 -4 -10z"/>
<path d="M2435 1830 c3 -5 8 -10 11 -10 2 0 4 5 4 10 0 6 -5 10 -11 10 -5 0
-7 -4 -4 -10z"/>
<path d="M4202 1820 c0 -14 2 -19 5 -12 2 6 2 18 0 25 -3 6 -5 1 -5 -13z"/>
<path d="M2910 1690 c0 -5 5 -10 10 -10 6 0 10 5 10 10 0 6 -4 10 -10 10 -5 0
-10 -4 -10 -10z"/>
<path d="M4320 1641 c-6 -16 -18 -32 -26 -35 -25 -9 -16 -34 10 -29 19 4 25
13 29 46 7 51 3 56 -13 18z"/>
<path d="M3245 1540 c-3 -5 -1 -10 4 -10 6 0 11 5 11 10 0 6 -2 10 -4 10 -3 0
-8 -4 -11 -10z"/>
<path d="M3945 1470 c4 -6 11 -8 16 -5 14 9 11 15 -7 15 -8 0 -12 -5 -9 -10z"/>
<path d="M2220 1351 c0 -10 19 -25 25 -20 1 2 -3 10 -11 17 -8 7 -14 8 -14 3z"/>
<path d="M3700 1310 c0 -5 5 -10 11 -10 5 0 7 5 4 10 -3 6 -8 10 -11 10 -2 0
-4 -4 -4 -10z"/>
<path d="M4140 1300 c0 -5 5 -10 11 -10 5 0 7 5 4 10 -3 6 -8 10 -11 10 -2 0
-4 -4 -4 -10z"/>
<path d="M4040 1290 c17 -11 47 -14 36 -3 -3 4 -17 8 -29 10 -17 2 -19 1 -7
-7z"/>
<path d="M2985 1270 c3 -5 8 -10 11 -10 2 0 4 5 4 10 0 6 -5 10 -11 10 -5 0
-7 -4 -4 -10z"/>
<path d="M5110 1230 c0 -5 5 -10 11 -10 5 0 7 5 4 10 -3 6 -8 10 -11 10 -2 0
-4 -4 -4 -10z"/>
<path d="M4945 1220 c-3 -5 -1 -10 4 -10 6 0 11 5 11 10 0 6 -2 10 -4 10 -3 0
-8 -4 -11 -10z"/>
<path d="M5252 1080 c14 -22 24 -19 15 5 -4 8 -11 15 -17 15 -6 0 -6 -7 2 -20z"/>
<path d="M3650 969 c0 -5 5 -7 10 -4 6 3 10 8 10 11 0 2 -4 4 -10 4 -5 0 -10
-5 -10 -11z"/>
<path d="M2953 3 c428 -2 1126 -2 1550 0 425 1 75 2 -778 2 -852 0 -1200 -1
-772 -2z"/>
</g>
</svg>
